# xmcd
#
# Track frame offsets:
#	150
#	12190
#	30617
#	51190
#	71337
#	91040
#	109407
#	124920
#	141520
#	153557
#	171977
#	192652
#	212767
#	232465
#	250820
#	266282
#	282845
#	299412
#
# Disc length: 4213 seconds
#
# Revision: 2
# Processed by: cddbd v1.5.2PL0 Copyright (c) Steve Scherf et al.
# Submitted via: audiograbber 1.83.01
#
DISCID=17107312
DTITLE=Various Artist - SC3098
DYEAR=1900
DGENRE=KARAOKE
TTITLE0=Strait, George - We Really Shouldn't Be Doing This
TTITLE1=McCann, Lila - To Get Me To You
TTITLE2=Hill, Faith - Let Me Let Go
TTITLE3=Holmes, Monty - Alone
TTITLE4=Warren Brothers, The - Guilty
TTITLE5=Moorer, Allison - Set You Free
TTITLE6=Blackhawk - There You Have It
TTITLE7=Yearwood, Trisha - Where Your Road Leads
TTITLE8=Strait, George - We Really Shouldn't Be Doing This
TTITLE9=McCann, Lila - To Get Me To You
TTITLE10=Hill, Faith - Let Me Let Go
TTITLE11=Holmes, Monty - Alone
TTITLE12=Warren Brothers, The - Guilty
TTITLE13=Moorer, Allison - Set You Free
TTITLE14=Blackhawk - There You Have It
TTITLE15=Yearwood, Trisha - Where Your Road Leads
TTITLE16=Yearwood, Trisha and Brooks, Garth - Where Your Road Leads
TTITLE17=Yearwood, Trisha and Brooks, Garth - Where Your Road Leads
EXTD=
EXTT0=
EXTT1=
EXTT2=
EXTT3=
EXTT4=
EXTT5=
EXTT6=
EXTT7=
EXTT8=
EXTT9=
EXTT10=
EXTT11=
EXTT12=
EXTT13=
EXTT14=
EXTT15=
EXTT16=
EXTT17=
PLAYORDER=
